<mxfile host="app.diagrams.net" modified="2022-10-17T12:25:41.669Z" agent="5.0 (Macintosh; Intel Mac OS X 10_15_7) AppleWebKit/537.36 (KHTML, like Gecko) Chrome/87.0.4280.67 Safari/537.36" etag="Yl-0D-7fDGa_myQ2mGAW" version="20.3.3" type="github" pages="2">
  <diagram id="v0VoCATMuZHcXfQ0b3i3" name="第 1 页">
    <mxGraphModel dx="850" dy="450" grid="1" gridSize="10" guides="1" tooltips="1" connect="1" arrows="1" fold="1" page="1" pageScale="1" pageWidth="827" pageHeight="1169" math="0" shadow="0">
      <root>
        <mxCell id="0" />
        <mxCell id="1" parent="0" />
        <mxCell id="BQofe1rbDuAQ_jdxFPbC-1" value="" style="rounded=0;whiteSpace=wrap;html=1;dashed=1;" parent="1" vertex="1">
          <mxGeometry x="80" y="700" width="670" height="250" as="geometry" />
        </mxCell>
        <mxCell id="BQofe1rbDuAQ_jdxFPbC-2" value="user1&lt;br&gt;day1" style="rounded=0;whiteSpace=wrap;html=1;fillColor=#ffe6cc;strokeColor=#d79b00;" parent="1" vertex="1">
          <mxGeometry x="130" y="796" width="80" height="40" as="geometry" />
        </mxCell>
        <mxCell id="BQofe1rbDuAQ_jdxFPbC-6" value="user1&lt;br&gt;day7" style="rounded=0;whiteSpace=wrap;html=1;fillColor=#ffe6cc;strokeColor=#d79b00;" parent="1" vertex="1">
          <mxGeometry x="270" y="796" width="80" height="40" as="geometry" />
        </mxCell>
        <mxCell id="BQofe1rbDuAQ_jdxFPbC-7" value="user2&lt;br&gt;day1" style="rounded=0;whiteSpace=wrap;html=1;fillColor=#ffe6cc;strokeColor=#d79b00;" parent="1" vertex="1">
          <mxGeometry x="414" y="796" width="80" height="40" as="geometry" />
        </mxCell>
        <mxCell id="BQofe1rbDuAQ_jdxFPbC-8" value="user2&lt;br&gt;day7" style="rounded=0;whiteSpace=wrap;html=1;fillColor=#ffe6cc;strokeColor=#d79b00;" parent="1" vertex="1">
          <mxGeometry x="550" y="796" width="80" height="40" as="geometry" />
        </mxCell>
        <mxCell id="BQofe1rbDuAQ_jdxFPbC-9" value="user1&lt;br&gt;day8" style="rounded=0;whiteSpace=wrap;html=1;fillColor=#b1ddf0;strokeColor=#10739e;" parent="1" vertex="1">
          <mxGeometry x="130" y="876" width="80" height="40" as="geometry" />
        </mxCell>
        <mxCell id="BQofe1rbDuAQ_jdxFPbC-10" value="user1&lt;br&gt;day n" style="rounded=0;whiteSpace=wrap;html=1;fillColor=#b1ddf0;strokeColor=#10739e;" parent="1" vertex="1">
          <mxGeometry x="270" y="876" width="80" height="40" as="geometry" />
        </mxCell>
        <mxCell id="BQofe1rbDuAQ_jdxFPbC-11" value="user2&lt;br&gt;day8" style="rounded=0;whiteSpace=wrap;html=1;fillColor=#b1ddf0;strokeColor=#10739e;" parent="1" vertex="1">
          <mxGeometry x="414" y="876" width="80" height="40" as="geometry" />
        </mxCell>
        <mxCell id="BQofe1rbDuAQ_jdxFPbC-12" value="user2&lt;br&gt;day n" style="rounded=0;whiteSpace=wrap;html=1;fillColor=#b1ddf0;strokeColor=#10739e;" parent="1" vertex="1">
          <mxGeometry x="550" y="876" width="80" height="40" as="geometry" />
        </mxCell>
        <mxCell id="odRdDOn0-DyfQmqPgPSH-1" value="hot data" style="rounded=0;whiteSpace=wrap;html=1;fillColor=#ffe6cc;strokeColor=#d79b00;" parent="1" vertex="1">
          <mxGeometry x="10" y="801" width="60" height="30" as="geometry" />
        </mxCell>
        <mxCell id="odRdDOn0-DyfQmqPgPSH-2" value="cold data" style="rounded=0;whiteSpace=wrap;html=1;fillColor=#b1ddf0;strokeColor=#10739e;" parent="1" vertex="1">
          <mxGeometry x="10" y="876" width="60" height="30" as="geometry" />
        </mxCell>
        <mxCell id="odRdDOn0-DyfQmqPgPSH-6" value="S3" style="text;html=1;resizable=0;autosize=1;align=center;verticalAlign=middle;points=[];fillColor=#ffe6cc;strokeColor=#d79b00;rounded=0;fontSize=14;" parent="1" vertex="1">
          <mxGeometry x="60" y="680" width="40" height="30" as="geometry" />
        </mxCell>
        <mxCell id="odRdDOn0-DyfQmqPgPSH-7" value="...." style="text;html=1;resizable=0;autosize=1;align=center;verticalAlign=middle;points=[];fillColor=none;strokeColor=none;rounded=0;fontSize=16;" parent="1" vertex="1">
          <mxGeometry x="220" y="801" width="40" height="30" as="geometry" />
        </mxCell>
        <mxCell id="odRdDOn0-DyfQmqPgPSH-9" value="...." style="text;html=1;resizable=0;autosize=1;align=center;verticalAlign=middle;points=[];fillColor=none;strokeColor=none;rounded=0;fontSize=16;" parent="1" vertex="1">
          <mxGeometry x="500" y="801" width="40" height="30" as="geometry" />
        </mxCell>
        <mxCell id="odRdDOn0-DyfQmqPgPSH-10" value="...." style="text;html=1;resizable=0;autosize=1;align=center;verticalAlign=middle;points=[];fillColor=none;strokeColor=none;rounded=0;fontSize=16;" parent="1" vertex="1">
          <mxGeometry x="650" y="801" width="40" height="30" as="geometry" />
        </mxCell>
        <mxCell id="odRdDOn0-DyfQmqPgPSH-11" value="...." style="text;html=1;resizable=0;autosize=1;align=center;verticalAlign=middle;points=[];fillColor=none;strokeColor=none;rounded=0;fontSize=16;" parent="1" vertex="1">
          <mxGeometry x="220" y="881" width="40" height="30" as="geometry" />
        </mxCell>
        <mxCell id="odRdDOn0-DyfQmqPgPSH-12" value="...." style="text;html=1;resizable=0;autosize=1;align=center;verticalAlign=middle;points=[];fillColor=none;strokeColor=none;rounded=0;fontSize=16;" parent="1" vertex="1">
          <mxGeometry x="500" y="881" width="40" height="30" as="geometry" />
        </mxCell>
        <mxCell id="odRdDOn0-DyfQmqPgPSH-13" value="...." style="text;html=1;resizable=0;autosize=1;align=center;verticalAlign=middle;points=[];fillColor=none;strokeColor=none;rounded=0;fontSize=16;" parent="1" vertex="1">
          <mxGeometry x="650" y="881" width="40" height="30" as="geometry" />
        </mxCell>
        <mxCell id="2Sb_COR3X3JkltohImUN-3" value="" style="edgeStyle=orthogonalEdgeStyle;rounded=0;orthogonalLoop=1;jettySize=auto;html=1;" edge="1" parent="1" source="2Sb_COR3X3JkltohImUN-1">
          <mxGeometry relative="1" as="geometry">
            <mxPoint x="170" y="700" as="targetPoint" />
            <Array as="points">
              <mxPoint x="170" y="700" />
              <mxPoint x="170" y="700" />
            </Array>
          </mxGeometry>
        </mxCell>
        <mxCell id="2Sb_COR3X3JkltohImUN-1" value="flink" style="shape=cylinder3;whiteSpace=wrap;html=1;boundedLbl=1;backgroundOutline=1;size=15;direction=south;fillColor=#ffe6cc;strokeColor=#d79b00;" vertex="1" parent="1">
          <mxGeometry x="130" y="600" width="80" height="60" as="geometry" />
        </mxCell>
        <mxCell id="2Sb_COR3X3JkltohImUN-5" style="edgeStyle=orthogonalEdgeStyle;rounded=0;orthogonalLoop=1;jettySize=auto;html=1;exitX=0.5;exitY=1;exitDx=0;exitDy=0;entryX=0.5;entryY=0;entryDx=0;entryDy=0;" edge="1" parent="1" source="2Sb_COR3X3JkltohImUN-4" target="BQofe1rbDuAQ_jdxFPbC-2">
          <mxGeometry relative="1" as="geometry" />
        </mxCell>
        <mxCell id="2Sb_COR3X3JkltohImUN-4" value="s3 lambda: merge user data to one day" style="rounded=0;whiteSpace=wrap;html=1;fillColor=#ffe6cc;strokeColor=#d79b00;" vertex="1" parent="1">
          <mxGeometry x="110" y="730" width="120" height="40" as="geometry" />
        </mxCell>
        <mxCell id="2Sb_COR3X3JkltohImUN-7" value="" style="endArrow=classic;html=1;rounded=0;exitX=0.134;exitY=-0.004;exitDx=0;exitDy=0;exitPerimeter=0;dashed=1;" edge="1" parent="1" source="BQofe1rbDuAQ_jdxFPbC-1">
          <mxGeometry width="50" height="50" relative="1" as="geometry">
            <mxPoint x="120" y="780" as="sourcePoint" />
            <mxPoint x="170" y="730" as="targetPoint" />
          </mxGeometry>
        </mxCell>
        <mxCell id="2Sb_COR3X3JkltohImUN-24" value="listen s3 data change" style="edgeLabel;html=1;align=center;verticalAlign=middle;resizable=0;points=[];" vertex="1" connectable="0" parent="2Sb_COR3X3JkltohImUN-7">
          <mxGeometry x="-0.0963" y="1" relative="1" as="geometry">
            <mxPoint as="offset" />
          </mxGeometry>
        </mxCell>
        <mxCell id="2Sb_COR3X3JkltohImUN-10" style="edgeStyle=none;rounded=0;orthogonalLoop=1;jettySize=auto;html=1;exitX=0.5;exitY=1;exitDx=0;exitDy=0;dashed=1;" edge="1" parent="1" source="2Sb_COR3X3JkltohImUN-9" target="2Sb_COR3X3JkltohImUN-1">
          <mxGeometry relative="1" as="geometry" />
        </mxCell>
        <mxCell id="2Sb_COR3X3JkltohImUN-11" value="10000+ TPS kafka" style="edgeLabel;html=1;align=center;verticalAlign=middle;resizable=0;points=[];" vertex="1" connectable="0" parent="2Sb_COR3X3JkltohImUN-10">
          <mxGeometry x="-0.12" y="1" relative="1" as="geometry">
            <mxPoint as="offset" />
          </mxGeometry>
        </mxCell>
        <mxCell id="2Sb_COR3X3JkltohImUN-9" value="gateway" style="rounded=0;whiteSpace=wrap;html=1;fillColor=#ffe6cc;strokeColor=#d79b00;" vertex="1" parent="1">
          <mxGeometry x="115" y="510" width="110" height="40" as="geometry" />
        </mxCell>
        <mxCell id="2Sb_COR3X3JkltohImUN-18" style="edgeStyle=none;rounded=0;orthogonalLoop=1;jettySize=auto;html=1;exitX=0.5;exitY=1;exitDx=0;exitDy=0;entryX=0.5;entryY=0;entryDx=0;entryDy=0;" edge="1" parent="1" source="2Sb_COR3X3JkltohImUN-12" target="BQofe1rbDuAQ_jdxFPbC-7">
          <mxGeometry relative="1" as="geometry">
            <Array as="points">
              <mxPoint x="520" y="690" />
              <mxPoint x="454" y="690" />
            </Array>
          </mxGeometry>
        </mxCell>
        <mxCell id="2Sb_COR3X3JkltohImUN-19" style="edgeStyle=none;rounded=0;orthogonalLoop=1;jettySize=auto;html=1;exitX=0.5;exitY=1;exitDx=0;exitDy=0;entryX=0.5;entryY=0;entryDx=0;entryDy=0;" edge="1" parent="1" source="2Sb_COR3X3JkltohImUN-12" target="BQofe1rbDuAQ_jdxFPbC-8">
          <mxGeometry relative="1" as="geometry">
            <Array as="points">
              <mxPoint x="520" y="690" />
              <mxPoint x="590" y="690" />
            </Array>
          </mxGeometry>
        </mxCell>
        <mxCell id="2Sb_COR3X3JkltohImUN-23" value="paraell search" style="edgeLabel;html=1;align=center;verticalAlign=middle;resizable=0;points=[];" vertex="1" connectable="0" parent="2Sb_COR3X3JkltohImUN-19">
          <mxGeometry x="-0.8519" relative="1" as="geometry">
            <mxPoint as="offset" />
          </mxGeometry>
        </mxCell>
        <mxCell id="2Sb_COR3X3JkltohImUN-12" value="user-events-query" style="rounded=0;whiteSpace=wrap;html=1;fillColor=#ffe6cc;strokeColor=#d79b00;" vertex="1" parent="1">
          <mxGeometry x="455" y="610" width="130" height="40" as="geometry" />
        </mxCell>
        <mxCell id="2Sb_COR3X3JkltohImUN-21" value="" style="edgeStyle=none;rounded=0;orthogonalLoop=1;jettySize=auto;html=1;" edge="1" parent="1" source="2Sb_COR3X3JkltohImUN-20" target="2Sb_COR3X3JkltohImUN-12">
          <mxGeometry relative="1" as="geometry" />
        </mxCell>
        <mxCell id="2Sb_COR3X3JkltohImUN-22" value="query" style="edgeLabel;html=1;align=center;verticalAlign=middle;resizable=0;points=[];" vertex="1" connectable="0" parent="2Sb_COR3X3JkltohImUN-21">
          <mxGeometry x="-0.5" relative="1" as="geometry">
            <mxPoint as="offset" />
          </mxGeometry>
        </mxCell>
        <mxCell id="2Sb_COR3X3JkltohImUN-20" value="admin system" style="rounded=0;whiteSpace=wrap;html=1;fillColor=#b1ddf0;strokeColor=#10739e;" vertex="1" parent="1">
          <mxGeometry x="475" y="510" width="90" height="40" as="geometry" />
        </mxCell>
      </root>
    </mxGraphModel>
  </diagram>
  <diagram id="2kgRpoBIMPyvj5__OIcH" name="第 2 页">
    <mxGraphModel dx="850" dy="450" grid="1" gridSize="10" guides="1" tooltips="1" connect="1" arrows="1" fold="1" page="1" pageScale="1" pageWidth="827" pageHeight="1169" math="0" shadow="0">
      <root>
        <mxCell id="0" />
        <mxCell id="1" parent="0" />
        <mxCell id="gWFYIP7W994Z3gO-5k4k-1" value="" style="rounded=0;whiteSpace=wrap;html=1;dashed=1;" vertex="1" parent="1">
          <mxGeometry x="80" y="842" width="740" height="188" as="geometry" />
        </mxCell>
        <mxCell id="gWFYIP7W994Z3gO-5k4k-2" value="" style="rounded=0;whiteSpace=wrap;html=1;fillColor=#ffe6cc;strokeColor=#d79b00;" vertex="1" parent="1">
          <mxGeometry x="100" y="868" width="210" height="132" as="geometry" />
        </mxCell>
        <mxCell id="gWFYIP7W994Z3gO-5k4k-5" value="temporary tsv file" style="rounded=0;whiteSpace=wrap;html=1;fillColor=#d5e8d4;strokeColor=#82b366;" vertex="1" parent="1">
          <mxGeometry x="393" y="491" width="80" height="40" as="geometry" />
        </mxCell>
        <mxCell id="gWFYIP7W994Z3gO-5k4k-12" value="S3" style="text;html=1;resizable=0;autosize=1;align=center;verticalAlign=middle;points=[];fillColor=#ffe6cc;strokeColor=#d79b00;rounded=0;fontSize=14;" vertex="1" parent="1">
          <mxGeometry x="60" y="822" width="40" height="30" as="geometry" />
        </mxCell>
        <mxCell id="f2tE78hSKC4pJXs-_ZYa-18" style="edgeStyle=none;rounded=0;orthogonalLoop=1;jettySize=auto;html=1;exitX=0.5;exitY=0;exitDx=0;exitDy=0;exitPerimeter=0;entryX=0;entryY=0.5;entryDx=0;entryDy=0;" edge="1" parent="1" source="gWFYIP7W994Z3gO-5k4k-20" target="gWFYIP7W994Z3gO-5k4k-5">
          <mxGeometry relative="1" as="geometry" />
        </mxCell>
        <mxCell id="f2tE78hSKC4pJXs-_ZYa-28" value="&lt;span style=&quot;font-size: 12px; background-color: rgb(248, 249, 250);&quot;&gt;Write a file every n lines,&amp;nbsp;&lt;br&gt;n &amp;gt; 50000.&amp;nbsp; &lt;br&gt;And file is ranged by&lt;br&gt;userid&lt;br&gt;&lt;/span&gt;" style="edgeLabel;html=1;align=center;verticalAlign=middle;resizable=0;points=[];" vertex="1" connectable="0" parent="f2tE78hSKC4pJXs-_ZYa-18">
          <mxGeometry x="0.3837" y="1" relative="1" as="geometry">
            <mxPoint x="-40" as="offset" />
          </mxGeometry>
        </mxCell>
        <mxCell id="gWFYIP7W994Z3gO-5k4k-20" value="flink" style="shape=cylinder3;whiteSpace=wrap;html=1;boundedLbl=1;backgroundOutline=1;size=15;direction=south;fillColor=#ffe6cc;strokeColor=#d79b00;" vertex="1" parent="1">
          <mxGeometry x="141" y="481" width="80" height="60" as="geometry" />
        </mxCell>
        <mxCell id="gWFYIP7W994Z3gO-5k4k-25" style="edgeStyle=none;rounded=0;orthogonalLoop=1;jettySize=auto;html=1;exitX=0.5;exitY=1;exitDx=0;exitDy=0;dashed=1;" edge="1" parent="1" source="gWFYIP7W994Z3gO-5k4k-27" target="gWFYIP7W994Z3gO-5k4k-20">
          <mxGeometry relative="1" as="geometry" />
        </mxCell>
        <mxCell id="gWFYIP7W994Z3gO-5k4k-26" value="10000+ TPS kafka" style="edgeLabel;html=1;align=center;verticalAlign=middle;resizable=0;points=[];" vertex="1" connectable="0" parent="gWFYIP7W994Z3gO-5k4k-25">
          <mxGeometry x="-0.12" y="1" relative="1" as="geometry">
            <mxPoint as="offset" />
          </mxGeometry>
        </mxCell>
        <mxCell id="gWFYIP7W994Z3gO-5k4k-27" value="gateway" style="rounded=0;whiteSpace=wrap;html=1;fillColor=#ffe6cc;strokeColor=#d79b00;" vertex="1" parent="1">
          <mxGeometry x="126" y="391" width="110" height="40" as="geometry" />
        </mxCell>
        <mxCell id="gWFYIP7W994Z3gO-5k4k-31" value="user-events-query" style="rounded=0;whiteSpace=wrap;html=1;fillColor=#ffe6cc;strokeColor=#d79b00;" vertex="1" parent="1">
          <mxGeometry x="600" y="491" width="170" height="39" as="geometry" />
        </mxCell>
        <mxCell id="gWFYIP7W994Z3gO-5k4k-32" value="" style="edgeStyle=none;rounded=0;orthogonalLoop=1;jettySize=auto;html=1;" edge="1" parent="1" source="gWFYIP7W994Z3gO-5k4k-34" target="gWFYIP7W994Z3gO-5k4k-31">
          <mxGeometry relative="1" as="geometry" />
        </mxCell>
        <mxCell id="gWFYIP7W994Z3gO-5k4k-33" value="query" style="edgeLabel;html=1;align=center;verticalAlign=middle;resizable=0;points=[];" vertex="1" connectable="0" parent="gWFYIP7W994Z3gO-5k4k-32">
          <mxGeometry x="-0.5" relative="1" as="geometry">
            <mxPoint as="offset" />
          </mxGeometry>
        </mxCell>
        <mxCell id="gWFYIP7W994Z3gO-5k4k-34" value="admin system" style="rounded=0;whiteSpace=wrap;html=1;fillColor=#ffe6cc;strokeColor=#d79b00;" vertex="1" parent="1">
          <mxGeometry x="641" y="391" width="90" height="40" as="geometry" />
        </mxCell>
        <mxCell id="gWFYIP7W994Z3gO-5k4k-36" style="edgeStyle=none;rounded=0;orthogonalLoop=1;jettySize=auto;html=1;exitX=1;exitY=1;exitDx=0;exitDy=0;" edge="1" parent="1" source="gWFYIP7W994Z3gO-5k4k-1" target="gWFYIP7W994Z3gO-5k4k-1">
          <mxGeometry relative="1" as="geometry" />
        </mxCell>
        <mxCell id="gWFYIP7W994Z3gO-5k4k-37" value="" style="rounded=0;whiteSpace=wrap;html=1;fillColor=#b1ddf0;strokeColor=#10739e;" vertex="1" parent="1">
          <mxGeometry x="80" y="700" width="740" height="90" as="geometry" />
        </mxCell>
        <mxCell id="gWFYIP7W994Z3gO-5k4k-38" value="user_operation_log1" style="text;html=1;resizable=0;autosize=1;align=center;verticalAlign=middle;points=[];fillColor=none;strokeColor=none;rounded=0;" vertex="1" parent="1">
          <mxGeometry x="145" y="863" width="130" height="30" as="geometry" />
        </mxCell>
        <mxCell id="gWFYIP7W994Z3gO-5k4k-40" value="segment1" style="rounded=0;whiteSpace=wrap;html=1;fillColor=#b1ddf0;strokeColor=#10739e;" vertex="1" parent="1">
          <mxGeometry x="145" y="893" width="106" height="17" as="geometry" />
        </mxCell>
        <mxCell id="gWFYIP7W994Z3gO-5k4k-41" value="segment2" style="rounded=0;whiteSpace=wrap;html=1;fillColor=#b1ddf0;strokeColor=#10739e;" vertex="1" parent="1">
          <mxGeometry x="145" y="920" width="106" height="17" as="geometry" />
        </mxCell>
        <mxCell id="f2tE78hSKC4pJXs-_ZYa-1" value="...." style="text;html=1;resizable=0;autosize=1;align=center;verticalAlign=middle;points=[];fillColor=none;strokeColor=none;rounded=0;fontSize=16;" vertex="1" parent="1">
          <mxGeometry x="178" y="940" width="40" height="30" as="geometry" />
        </mxCell>
        <mxCell id="f2tE78hSKC4pJXs-_ZYa-2" value="segmentn" style="rounded=0;whiteSpace=wrap;html=1;fillColor=#b1ddf0;strokeColor=#10739e;" vertex="1" parent="1">
          <mxGeometry x="145" y="970" width="106" height="17" as="geometry" />
        </mxCell>
        <mxCell id="f2tE78hSKC4pJXs-_ZYa-3" value="" style="rounded=0;whiteSpace=wrap;html=1;fillColor=#ffe6cc;strokeColor=#d79b00;" vertex="1" parent="1">
          <mxGeometry x="355" y="868" width="210" height="132" as="geometry" />
        </mxCell>
        <mxCell id="f2tE78hSKC4pJXs-_ZYa-4" value="user_operation_log2" style="text;html=1;resizable=0;autosize=1;align=center;verticalAlign=middle;points=[];fillColor=none;strokeColor=none;rounded=0;" vertex="1" parent="1">
          <mxGeometry x="400" y="863" width="130" height="30" as="geometry" />
        </mxCell>
        <mxCell id="f2tE78hSKC4pJXs-_ZYa-5" value="segment1" style="rounded=0;whiteSpace=wrap;html=1;fillColor=#b1ddf0;strokeColor=#10739e;" vertex="1" parent="1">
          <mxGeometry x="400" y="893" width="106" height="17" as="geometry" />
        </mxCell>
        <mxCell id="f2tE78hSKC4pJXs-_ZYa-6" value="segment2" style="rounded=0;whiteSpace=wrap;html=1;fillColor=#b1ddf0;strokeColor=#10739e;" vertex="1" parent="1">
          <mxGeometry x="400" y="920" width="106" height="17" as="geometry" />
        </mxCell>
        <mxCell id="f2tE78hSKC4pJXs-_ZYa-7" value="...." style="text;html=1;resizable=0;autosize=1;align=center;verticalAlign=middle;points=[];fillColor=none;strokeColor=none;rounded=0;fontSize=16;" vertex="1" parent="1">
          <mxGeometry x="433" y="940" width="40" height="30" as="geometry" />
        </mxCell>
        <mxCell id="f2tE78hSKC4pJXs-_ZYa-8" value="segmentn" style="rounded=0;whiteSpace=wrap;html=1;fillColor=#b1ddf0;strokeColor=#10739e;" vertex="1" parent="1">
          <mxGeometry x="400" y="970" width="106" height="17" as="geometry" />
        </mxCell>
        <mxCell id="f2tE78hSKC4pJXs-_ZYa-9" value="" style="rounded=0;whiteSpace=wrap;html=1;fillColor=#ffe6cc;strokeColor=#d79b00;" vertex="1" parent="1">
          <mxGeometry x="600" y="868" width="210" height="132" as="geometry" />
        </mxCell>
        <mxCell id="f2tE78hSKC4pJXs-_ZYa-10" value="user_operation_log n" style="text;html=1;resizable=0;autosize=1;align=center;verticalAlign=middle;points=[];fillColor=none;strokeColor=none;rounded=0;" vertex="1" parent="1">
          <mxGeometry x="640" y="863" width="140" height="30" as="geometry" />
        </mxCell>
        <mxCell id="f2tE78hSKC4pJXs-_ZYa-11" value="segment1" style="rounded=0;whiteSpace=wrap;html=1;fillColor=#b1ddf0;strokeColor=#10739e;" vertex="1" parent="1">
          <mxGeometry x="645" y="893" width="106" height="17" as="geometry" />
        </mxCell>
        <mxCell id="f2tE78hSKC4pJXs-_ZYa-12" value="segment2" style="rounded=0;whiteSpace=wrap;html=1;fillColor=#b1ddf0;strokeColor=#10739e;" vertex="1" parent="1">
          <mxGeometry x="645" y="920" width="106" height="17" as="geometry" />
        </mxCell>
        <mxCell id="f2tE78hSKC4pJXs-_ZYa-13" value="...." style="text;html=1;resizable=0;autosize=1;align=center;verticalAlign=middle;points=[];fillColor=none;strokeColor=none;rounded=0;fontSize=16;" vertex="1" parent="1">
          <mxGeometry x="678" y="940" width="40" height="30" as="geometry" />
        </mxCell>
        <mxCell id="f2tE78hSKC4pJXs-_ZYa-14" value="segmentn" style="rounded=0;whiteSpace=wrap;html=1;fillColor=#b1ddf0;strokeColor=#10739e;" vertex="1" parent="1">
          <mxGeometry x="645" y="970" width="106" height="17" as="geometry" />
        </mxCell>
        <mxCell id="f2tE78hSKC4pJXs-_ZYa-15" value="...." style="text;html=1;resizable=0;autosize=1;align=center;verticalAlign=middle;points=[];fillColor=none;strokeColor=none;rounded=0;fontSize=16;" vertex="1" parent="1">
          <mxGeometry x="310" y="910" width="40" height="30" as="geometry" />
        </mxCell>
        <mxCell id="f2tE78hSKC4pJXs-_ZYa-16" value="...." style="text;html=1;resizable=0;autosize=1;align=center;verticalAlign=middle;points=[];fillColor=none;strokeColor=none;rounded=0;fontSize=16;" vertex="1" parent="1">
          <mxGeometry x="560" y="907" width="40" height="30" as="geometry" />
        </mxCell>
        <mxCell id="f2tE78hSKC4pJXs-_ZYa-22" style="edgeStyle=none;rounded=0;orthogonalLoop=1;jettySize=auto;html=1;exitX=1;exitY=0.5;exitDx=0;exitDy=0;entryX=0.5;entryY=1;entryDx=0;entryDy=0;dashed=1;" edge="1" parent="1" source="f2tE78hSKC4pJXs-_ZYa-21" target="gWFYIP7W994Z3gO-5k4k-5">
          <mxGeometry relative="1" as="geometry">
            <Array as="points">
              <mxPoint x="433" y="613" />
            </Array>
          </mxGeometry>
        </mxCell>
        <mxCell id="f2tE78hSKC4pJXs-_ZYa-26" value="get files" style="edgeLabel;html=1;align=center;verticalAlign=middle;resizable=0;points=[];" vertex="1" connectable="0" parent="f2tE78hSKC4pJXs-_ZYa-22">
          <mxGeometry x="-0.1779" y="3" relative="1" as="geometry">
            <mxPoint as="offset" />
          </mxGeometry>
        </mxCell>
        <mxCell id="f2tE78hSKC4pJXs-_ZYa-23" style="edgeStyle=none;rounded=0;orthogonalLoop=1;jettySize=auto;html=1;exitX=0.5;exitY=1;exitDx=0;exitDy=0;entryX=0.136;entryY=0;entryDx=0;entryDy=0;entryPerimeter=0;" edge="1" parent="1" source="f2tE78hSKC4pJXs-_ZYa-21">
          <mxGeometry relative="1" as="geometry">
            <mxPoint x="180.6400000000001" y="703" as="targetPoint" />
          </mxGeometry>
        </mxCell>
        <mxCell id="f2tE78hSKC4pJXs-_ZYa-24" value="insert file data into corrsponding table by userid" style="edgeLabel;html=1;align=center;verticalAlign=middle;resizable=0;points=[];" vertex="1" connectable="0" parent="f2tE78hSKC4pJXs-_ZYa-23">
          <mxGeometry x="-0.2272" relative="1" as="geometry">
            <mxPoint as="offset" />
          </mxGeometry>
        </mxCell>
        <mxCell id="f2tE78hSKC4pJXs-_ZYa-21" value="stream load job" style="rounded=0;whiteSpace=wrap;html=1;fillColor=#b1ddf0;strokeColor=#10739e;" vertex="1" parent="1">
          <mxGeometry x="141" y="579" width="79" height="70" as="geometry" />
        </mxCell>
        <mxCell id="f2tE78hSKC4pJXs-_ZYa-29" value="" style="edgeStyle=none;rounded=0;orthogonalLoop=1;jettySize=auto;html=1;" edge="1" parent="1">
          <mxGeometry relative="1" as="geometry">
            <mxPoint x="180" y="790" as="sourcePoint" />
            <mxPoint x="180" y="840" as="targetPoint" />
          </mxGeometry>
        </mxCell>
        <mxCell id="f2tE78hSKC4pJXs-_ZYa-31" value="save data to s3" style="edgeLabel;html=1;align=center;verticalAlign=middle;resizable=0;points=[];" vertex="1" connectable="0" parent="f2tE78hSKC4pJXs-_ZYa-29">
          <mxGeometry x="-0.32" y="1" relative="1" as="geometry">
            <mxPoint as="offset" />
          </mxGeometry>
        </mxCell>
        <mxCell id="f2tE78hSKC4pJXs-_ZYa-30" style="edgeStyle=none;rounded=0;orthogonalLoop=1;jettySize=auto;html=1;exitX=0.75;exitY=0;exitDx=0;exitDy=0;" edge="1" parent="1">
          <mxGeometry relative="1" as="geometry">
            <mxPoint x="205" y="723" as="sourcePoint" />
            <mxPoint x="205" y="723" as="targetPoint" />
          </mxGeometry>
        </mxCell>
        <mxCell id="f2tE78hSKC4pJXs-_ZYa-32" style="edgeStyle=none;rounded=0;orthogonalLoop=1;jettySize=auto;html=1;exitX=0.5;exitY=1;exitDx=0;exitDy=0;entryX=0.433;entryY=-0.033;entryDx=0;entryDy=0;entryPerimeter=0;" edge="1" parent="1" source="gWFYIP7W994Z3gO-5k4k-31" target="f2tE78hSKC4pJXs-_ZYa-44">
          <mxGeometry relative="1" as="geometry">
            <mxPoint x="686" y="660" as="targetPoint" />
          </mxGeometry>
        </mxCell>
        <mxCell id="f2tE78hSKC4pJXs-_ZYa-33" value="query data by userid" style="edgeLabel;html=1;align=center;verticalAlign=middle;resizable=0;points=[];" vertex="1" connectable="0" parent="f2tE78hSKC4pJXs-_ZYa-32">
          <mxGeometry x="-0.4884" y="1" relative="1" as="geometry">
            <mxPoint as="offset" />
          </mxGeometry>
        </mxCell>
        <mxCell id="f2tE78hSKC4pJXs-_ZYa-36" value="node1" style="rounded=0;whiteSpace=wrap;html=1;fillColor=#ffe6cc;strokeColor=#d79b00;" vertex="1" parent="1">
          <mxGeometry x="126" y="715" width="104" height="55" as="geometry" />
        </mxCell>
        <mxCell id="f2tE78hSKC4pJXs-_ZYa-37" value="databend nodes cluster" style="text;html=1;resizable=0;autosize=1;align=center;verticalAlign=middle;points=[];fillColor=#ffe6cc;strokeColor=#d79b00;rounded=0;fontSize=14;" vertex="1" parent="1">
          <mxGeometry x="365" y="680" width="170" height="30" as="geometry" />
        </mxCell>
        <mxCell id="f2tE78hSKC4pJXs-_ZYa-40" value="node2" style="rounded=0;whiteSpace=wrap;html=1;fillColor=#ffe6cc;strokeColor=#d79b00;" vertex="1" parent="1">
          <mxGeometry x="296" y="715" width="104" height="55" as="geometry" />
        </mxCell>
        <mxCell id="f2tE78hSKC4pJXs-_ZYa-41" value="node3" style="rounded=0;whiteSpace=wrap;html=1;fillColor=#ffe6cc;strokeColor=#d79b00;" vertex="1" parent="1">
          <mxGeometry x="460" y="715" width="104" height="55" as="geometry" />
        </mxCell>
        <mxCell id="f2tE78hSKC4pJXs-_ZYa-42" value="...." style="text;html=1;resizable=0;autosize=1;align=center;verticalAlign=middle;points=[];fillColor=none;strokeColor=none;rounded=0;fontSize=16;" vertex="1" parent="1">
          <mxGeometry x="581" y="727.5" width="40" height="30" as="geometry" />
        </mxCell>
        <mxCell id="f2tE78hSKC4pJXs-_ZYa-43" value="noden" style="rounded=0;whiteSpace=wrap;html=1;fillColor=#ffe6cc;strokeColor=#d79b00;" vertex="1" parent="1">
          <mxGeometry x="641" y="715" width="104" height="55" as="geometry" />
        </mxCell>
        <mxCell id="f2tE78hSKC4pJXs-_ZYa-44" value="export as mysql protocol" style="text;html=1;resizable=0;autosize=1;align=center;verticalAlign=middle;points=[];fillColor=#ffe6cc;strokeColor=#d79b00;rounded=0;fontSize=14;" vertex="1" parent="1">
          <mxGeometry x="608" y="680" width="180" height="30" as="geometry" />
        </mxCell>
        <mxCell id="f2tE78hSKC4pJXs-_ZYa-47" value="" style="endArrow=classic;html=1;rounded=0;exitX=0.826;exitY=1.011;exitDx=0;exitDy=0;exitPerimeter=0;" edge="1" parent="1" source="gWFYIP7W994Z3gO-5k4k-37">
          <mxGeometry width="50" height="50" relative="1" as="geometry">
            <mxPoint x="680" y="850" as="sourcePoint" />
            <mxPoint x="691" y="840" as="targetPoint" />
          </mxGeometry>
        </mxCell>
        <mxCell id="f2tE78hSKC4pJXs-_ZYa-48" value="parallel get datas from s3" style="edgeLabel;html=1;align=center;verticalAlign=middle;resizable=0;points=[];" vertex="1" connectable="0" parent="f2tE78hSKC4pJXs-_ZYa-47">
          <mxGeometry x="-0.347" y="2" relative="1" as="geometry">
            <mxPoint as="offset" />
          </mxGeometry>
        </mxCell>
        <mxCell id="f2tE78hSKC4pJXs-_ZYa-50" value="reuse shardingjdbc logic" style="rounded=0;whiteSpace=wrap;html=1;fillColor=#d5e8d4;strokeColor=#82b366;" vertex="1" parent="1">
          <mxGeometry x="621.5" y="520" width="138.5" height="17" as="geometry" />
        </mxCell>
      </root>
    </mxGraphModel>
  </diagram>
</mxfile>
